<svg width="50" height="50" viewBox="0 0 50 50" fill="none" xmlns="http://www.w3.org/2000/svg">
<path d="M39.5732 30.9732C38.5481 29.9074 37.3116 29.3375 36.0012 29.3375C34.7013 29.3375 33.4542 29.8968 32.3868 30.9627L29.0473 34.2868C28.7725 34.1391 28.4977 34.0019 28.2335 33.8647C27.8531 33.6748 27.4938 33.4954 27.1873 33.3054C24.0591 31.3215 21.2162 28.736 18.4896 25.3908C17.1686 23.7234 16.2809 22.3199 15.6362 20.8953C16.5028 20.1038 17.306 19.2807 18.0881 18.4892C18.384 18.1937 18.6799 17.8877 18.9758 17.5922C21.1951 15.3761 21.1951 12.5058 18.9758 10.2897L16.0907 7.40874C15.763 7.0816 15.4249 6.74391 15.1078 6.40622C14.4737 5.75194 13.8079 5.07656 13.121 4.44339C12.0959 3.43032 10.87 2.89212 9.58065 2.89212C8.29133 2.89212 7.04428 3.43032 5.98746 4.44339C5.97689 4.45394 5.97689 4.45394 5.96632 4.46449L2.37313 8.08412C1.0204 9.43488 0.248924 11.0811 0.079833 12.9912C-0.173804 16.0726 0.735062 18.943 1.43256 20.8214C3.14461 25.433 5.70212 29.7069 9.51724 34.2868C14.1461 39.806 19.7156 44.1643 26.0776 47.2352C28.5083 48.3854 31.7527 49.7467 35.3776 49.9789C35.5996 49.9895 35.8321 50 36.0434 50C38.4847 50 40.5349 49.1241 42.1413 47.3829C42.1519 47.3618 42.173 47.3512 42.1836 47.3301C42.7331 46.6653 43.3672 46.0638 44.033 45.4201C44.4874 44.9874 44.9524 44.5336 45.4069 44.0588C46.4531 42.9718 47.0027 41.7055 47.0027 40.4075C47.0027 39.0989 46.4425 37.8431 45.3751 36.7878L39.5732 30.9732ZM43.3566 42.0854C43.3461 42.0854 43.3461 42.0959 43.3566 42.0854C42.9445 42.5286 42.5217 42.9296 42.0673 43.3728C41.3804 44.0271 40.6829 44.713 40.0276 45.4834C38.9603 46.6231 37.7026 47.1613 36.054 47.1613C35.8955 47.1613 35.7264 47.1613 35.5679 47.1507C32.4291 46.9502 29.5123 45.7261 27.3247 44.6814C21.3431 41.7899 16.0907 37.6848 11.726 32.4823C8.12224 28.1451 5.71269 24.135 4.11689 19.8294C3.13404 17.2018 2.77472 15.1545 2.93325 13.2234C3.03893 11.9887 3.5145 10.965 4.39166 10.0892L7.99542 6.49064C8.51326 6.00521 9.06281 5.74139 9.60178 5.74139C10.2676 5.74139 10.8066 6.1424 11.1447 6.48009C11.1553 6.49064 11.1659 6.50119 11.1764 6.51175C11.8211 7.11326 12.4341 7.73588 13.0787 8.4007C13.4063 8.7384 13.7445 9.07609 14.0827 9.42433L16.9678 12.3053C18.0881 13.4239 18.0881 14.458 16.9678 15.5766C16.6613 15.8827 16.3654 16.1887 16.059 16.4842C15.1712 17.3917 14.3258 18.236 13.4063 19.0591C13.3852 19.0802 13.3641 19.0907 13.3535 19.1118C12.4446 20.0194 12.6137 20.9058 12.8039 21.5073C12.8145 21.539 12.8251 21.5707 12.8357 21.6023C13.586 23.4174 14.6428 25.127 16.2492 27.1637L16.2598 27.1742C19.1766 30.7622 22.2519 33.5587 25.6443 35.7009C26.0776 35.9753 26.5215 36.1969 26.9442 36.4079C27.3247 36.5979 27.684 36.7773 27.9905 36.9672C28.0327 36.9884 28.075 37.02 28.1173 37.0411C28.4766 37.2205 28.8148 37.3049 29.1635 37.3049C30.0407 37.3049 30.5902 36.7562 30.7699 36.5768L34.3842 32.9677C34.7435 32.6089 35.3142 32.1763 35.98 32.1763C36.6352 32.1763 37.1742 32.5878 37.5018 32.9466C37.5124 32.9572 37.5124 32.9572 37.523 32.9677L43.3461 38.7823C44.4346 39.8587 44.4346 40.9668 43.3566 42.0854Z" fill="#646464"/>
<path d="M27.0604 11.8937C29.8293 12.358 32.3445 13.6666 34.3525 15.6716C36.3605 17.6767 37.6604 20.1882 38.1359 22.9531C38.2522 23.6496 38.8546 24.135 39.5415 24.135C39.626 24.135 39.7 24.1244 39.7846 24.1139C40.5666 23.9873 41.0845 23.2486 40.9576 22.4676C40.387 19.1224 38.8017 16.0726 36.3816 13.656C33.9615 11.2394 30.9073 9.65649 27.5571 9.08664C26.7751 8.96 26.0459 9.47709 25.9085 10.2475C25.7711 11.0178 26.2784 11.7671 27.0604 11.8937Z" fill="#646464"/>
<path d="M50.0146 22.0561C49.074 16.5475 46.4742 11.5349 42.4795 7.54593C38.4847 3.55695 33.4648 0.960953 27.9482 0.0217498C27.1767 -0.115437 26.4475 0.412205 26.3101 1.18256C26.1833 1.96347 26.7011 2.69162 27.4832 2.82881C32.408 3.66248 36.8994 5.99466 40.4715 9.55097C44.0436 13.1178 46.3686 17.6028 47.2034 22.5204C47.3197 23.2169 47.9221 23.7023 48.609 23.7023C48.6936 23.7023 48.7675 23.6918 48.8521 23.6812C49.6236 23.5651 50.152 22.8264 50.0146 22.0561Z" fill="#646464"/>
</svg>
