<svg width="42" height="50" viewBox="0 0 42 50" fill="none" xmlns="http://www.w3.org/2000/svg">
<path d="M41 43.2209L38.137 10.9816C38.0757 10.2658 37.4724 9.72393 36.7669 9.72393H30.8773C30.7955 4.3456 26.3988 0 21 0C15.6012 0 11.2045 4.3456 11.1227 9.72393H5.23313C4.51738 9.72393 3.92434 10.2658 3.86299 10.9816L1 43.2209C1 43.2618 0.989777 43.3027 0.989777 43.3436C0.989777 47.0143 4.35378 50 8.49489 50H33.5051C37.6462 50 41.0102 47.0143 41.0102 43.3436C41.0102 43.3027 41.0102 43.2618 41 43.2209ZM21 2.76074C24.8753 2.76074 28.0348 5.86912 28.1166 9.72393H13.8834C13.9652 5.86912 17.1247 2.76074 21 2.76074ZM33.5051 47.2393H8.49489C5.89775 47.2393 3.79141 45.5215 3.75051 43.4049L6.4908 12.4949H11.1125V16.6871C11.1125 17.454 11.726 18.0675 12.4928 18.0675C13.2597 18.0675 13.8732 17.454 13.8732 16.6871V12.4949H28.1166V16.6871C28.1166 17.454 28.7301 18.0675 29.4969 18.0675C30.2638 18.0675 30.8773 17.454 30.8773 16.6871V12.4949H35.499L38.2495 43.4049C38.2086 45.5215 36.092 47.2393 33.5051 47.2393Z" fill="#646464"/>
</svg>
