<svg width="50" height="50" viewBox="0 0 50 50" fill="none" xmlns="http://www.w3.org/2000/svg">
<path d="M25 50C11.2143 50 0 38.7857 0 25C0 11.2143 11.2143 0 25 0C38.7857 0 50 11.2143 50 25C50 38.7857 38.7857 50 25 50ZM25 3.5C13.1429 3.5 3.5 13.1429 3.5 25C3.5 36.8571 13.1429 46.5 25 46.5C36.8571 46.5 46.5 36.8571 46.5 25C46.5 13.1429 36.8571 3.5 25 3.5Z" fill="black"/>
<path d="M23.4899 33.5918C23.1532 33.9286 22.7042 34.102 22.2552 34.102C21.8062 34.102 21.3572 33.9286 21.0205 33.5918C20.3368 32.9082 20.3368 31.7959 21.0205 31.1122L27.1429 24.9898L21.0205 18.8673C20.3368 18.1837 20.3368 17.0714 21.0205 16.3878C21.7042 15.7041 22.8164 15.7041 23.5001 16.3878L30.8572 23.7449C31.1838 24.0714 31.3674 24.5204 31.3674 24.9796C31.3674 25.4388 31.1838 25.8878 30.8572 26.2143L23.4899 33.5918Z" fill="black"/>
</svg>
