<svg width="50" height="50" viewBox="0 0 50 50" fill="none" xmlns="http://www.w3.org/2000/svg">
<path d="M33.39 5.7211C25.7624 -1.90646 13.348 -1.90646 5.72041 5.7211C-1.9055 13.3503 -1.9055 25.7631 5.72041 33.3923C12.513 40.1832 23.092 40.9108 30.7146 35.608C30.875 36.367 31.2421 37.0912 31.8324 37.6815L42.9406 48.7897C44.5593 50.4051 47.1752 50.4051 48.7857 48.7897C50.4028 47.1725 50.4028 44.5567 48.7857 42.9446L37.6775 31.8331C37.0905 31.2477 36.3646 30.879 35.6057 30.7186C40.9117 23.0944 40.1842 12.517 33.39 5.7211ZM29.8829 29.8853C24.1883 35.5799 14.9205 35.5799 9.22747 29.8853C3.53615 24.1906 3.53615 14.9244 9.22747 9.22982C14.9205 3.53684 24.1883 3.53684 29.8829 9.22982C35.5776 14.9244 35.5776 24.1906 29.8829 29.8853Z" fill="#646464"/>
</svg>
