<svg width="50" height="50" viewBox="0 0 50 50" fill="none" xmlns="http://www.w3.org/2000/svg">
<circle cx="25" cy="25" r="25" fill="#34BF98"/>
<path d="M39.4998 38.2546L37.4957 15.6871C37.4528 15.1861 37.0305 14.8067 36.5366 14.8067H32.4139C32.3567 11.0419 29.279 8 25.4998 8C21.7207 8 18.643 11.0419 18.5857 14.8067H14.463C13.962 14.8067 13.5469 15.1861 13.5039 15.6871L11.4998 38.2546C11.4998 38.2832 11.4927 38.3119 11.4927 38.3405C11.4927 40.91 13.8475 43 16.7463 43H34.2534C37.1522 43 39.507 40.91 39.507 38.3405C39.507 38.3119 39.507 38.2832 39.4998 38.2546ZM25.4998 9.93252C28.2125 9.93252 30.4242 12.1084 30.4814 14.8067H20.5182C20.5755 12.1084 22.7872 9.93252 25.4998 9.93252ZM34.2534 41.0675H16.7463C14.9283 41.0675 13.4538 39.865 13.4252 38.3834L15.3434 16.7464H18.5786V19.681C18.5786 20.2178 19.008 20.6472 19.5448 20.6472C20.0816 20.6472 20.5111 20.2178 20.5111 19.681V16.7464H30.4814V19.681C30.4814 20.2178 30.9109 20.6472 31.4477 20.6472C31.9845 20.6472 32.4139 20.2178 32.4139 19.681V16.7464H35.6491L37.5745 38.3834C37.5458 39.865 36.0643 41.0675 34.2534 41.0675Z" fill="#646464"/>
</svg>
